
<svg id="master-artboard" viewBox="0 0 502.52728271484375 1057.9720458984375" version="1.1" xmlns="http://www.w3.org/2000/svg" x="0px" y="0px" style="enable-background:new 0 0 1400 980" width="502.52728271484375px" height="1057.9720458984375px"><rect id="ee-background" x="0" y="0" width="502.52728271484375" height="1057.9720458984375" style="fill:rgb(69, 205, 255);fill-opacity:0;pointer-events:none"></rect>


<g transform="matrix(2.0904836654663086, 0, 0, 2.0904836654663086, 322.12640380859375, 104.11856245994568)"><path class="st0" d="m -65.2,-22.8 h 24 l -19.5,14.1 7.7,24.3 -20.3,-14.1 -20.3,14.1 7.7,-24.3 -19.5,-14.1 h 24 l 8.1,-23.1 z M 2.4,-46 -5.7,-22.9 h -24 L -10.2,-8.8 -17.9,15.5 2.4,1.5 22.7,15.6 15,-8.7 34.5,-22.8 h -24 z m 6.7,340.6 c -39.2,25 -69.7,9.9 -85.4,0 -29.4,-18.6 -52.8,-8 -60.7,-0.3 v 21.3 c 7.2,-7.3 17,-11.3 28.6,-11.3 0,0 11.4,-1.1 30.7,8.6 12.9,6.5 42.2,27.4 88.3,0 16,-9.5 30.7,-8.6 30.7,-8.6 11.8,0 21.9,4.2 29.1,11.9 V 294.8 C 62.9,287.1 39.1,275.5 9.1,294.6 m 0,27.4 c -39.2,25 -69.7,9.9 -85.4,0 -29.4,-18.6 -52.8,-5.8 -60.7,2 v 23.4 c 7.2,-7.6 17,-15.7 28.6,-15.7 0,0 11.4,-1.1 30.7,8.6 12.9,6.5 42.2,27.4 88.3,0 16,-9.5 30.7,-8.6 30.7,-8.6 11.8,0 21.9,8.3 29.1,16 V 324.2 C 62.9,316.4 39.1,302.9 9.1,322 M 68.7,158.3 C 72.4,140 64.3,132.1 56.3,128.7 58.2,122.2 55.2,113.1 48.2,106 44.3,102 39.7,99.3 35.3,98.1 39.9,80.7 34,63.8 14.4,58.6 9.5,57.3 4.3,57.4 -0.4,58.6 -7.7,46.4 -21.1,38.2 -36.3,38.2 c -15,0 -28.1,8 -35.5,19.9 -8.2,-1.6 -17.1,0.4 -24.2,6 -10.8,8.5 -14.3,22.9 -9.6,35.2 -8.1,0.7 -15.3,5 -18.8,12.2 -2.8,5.8 -2.5,12.4 0,18.3 -8.4,4.1 -14.1,11.9 -14.1,21 0,2.1 0.3,4.1 0.9,6.1 -9.2,6 -15.4,16.4 -15.4,28.2 0,18.6 15.2,33.7 34.1,33.7 4.6,0 9,-0.9 13,-2.6 5.6,10.8 16.9,18.2 29.9,18.2 7.1,0 13.7,-2.4 19.1,-6.2 v 45.4 c -32.8,-18.5 -48,-17.9 -53.2,-17.9 -7.7,-0.4 -21,3.2 -26.8,9.3 v 21.3 c 6,-6.2 20.7,-10.6 31.9,-10.1 5.9,0.3 18.6,2.9 31.8,10.5 19.3,11.1 34.2,13.2 34.2,13.2 v -101 c -5.5,7.1 -16.1,11.9 -28.1,11.9 -15.6,0 -28.5,-7.9 -31.6,-18.5 -1.9,2.2 -4.5,4.1 -7.5,5.2 -8.7,3.2 -18,-0.6 -20.8,-8.5 -2.8,-7.9 1.9,-16.9 10.6,-20.1 1,-0.4 2.1,-0.7 3.1,-0.8 -5.7,-5.3 -8.2,-12.3 -5.6,-17.8 2.6,-5.7 9.8,-8.3 17.7,-7 -2.7,-3.1 -4.2,-6.9 -4.2,-11.1 0,-10.3 9.6,-18.7 21.5,-18.7 0.9,0 1.7,0 2.6,0.1 -3.6,-3.9 -5.8,-9.2 -5.8,-15 0,-12.1 9.6,-21.9 21.4,-21.9 3.2,0 6.3,0.7 9,2 1.5,-10 10.6,-17.6 21.5,-17.6 11.1,0 20.3,7.9 21.6,18 3.1,-1.9 6.8,-2.6 10.6,-2.6 11.8,0 21.4,10.1 21.4,22.6 0,5.7 -1.8,10.7 -5.1,14.6 0.7,-0.1 1.5,-0.1 2.2,-0.1 11.7,0 21.2,8.2 21.2,18.4 0,3.4 -1,6.5 -2.9,9.2 6.7,-0.1 12.9,3.7 15.1,10 1.8,5 0.7,10.5 -2.5,14.7 0.2,0 0.4,0.1 0.7,0.1 8.7,1.6 14.6,9.8 13.1,18.5 -1.5,8.7 -9.8,14.4 -18.5,12.9 -4.6,-0.8 -8.5,-3.6 -10.8,-7.2 -1.9,11.2 -15,19.9 -30.8,19.9 -11.2,0 -22.2,-4.3 -27.7,-10.8 v 100.8 c 0,0 14.9,-2.1 34.2,-13.2 13.2,-7.6 25.9,-10.2 31.8,-10.5 11.6,-0.5 26.4,3.6 31.9,10.2 v -21.3 c -5.5,-6.6 -18.9,-9.8 -26.8,-9.4 -5.1,0 -20.5,-0.6 -53.3,17.9 v -45.4 c 3.4,1.9 8.7,4 12.8,4.4 14.1,1.3 29.1,-5.5 36.1,-16.9 22.8,6 40,-8.8 43.3,-25.1 0.5,-2.4 0.7,-4.7 0.8,-7 0.1,-10.9 -5.3,-19.3 -14.5,-25.5 M -50,381.6 c 0,-3.8 -0.9,-5.1 -3.8,-5.1 H -56 v 0 14.2 0 h 2.2 c 2.9,0 3.8,-1.3 3.8,-5.1 v 0 z m 32.5,58.3 c 1.1,0 3,-0.1 4,-0.2 v 13.9 c -1.8,0.3 -3.8,0.4 -5.8,0.4 -12.7,0 -25.6,-6.8 -29.9,-18.2 -2,-5.3 -1.6,-11.9 -1.6,-11.9 v -15.6 c 0,-4 -2,-6 -5,-6 H -56 v 31.3 h -13.6 v -68.9 h 16.4 c 11.4,0 16.3,3.9 16.3,12.9 v 7.5 c 0,7.4 -3.6,11.5 -10.8,11.9 v 0.4 c 8.2,0.5 10.8,3.8 10.8,12 v 14.5 c 0,0 -0.4,15.7 19.4,16 M -137,433.4 h 13.6 v -31.1 h 11 v -11.6 h -11 v -14.1 h 12.2 V 365 H -137 Z m 49,-51.5 c 0,-2.7 -0.1,-3.6 -0.7,-4.5 -0.5,-0.8 -1.4,-1.2 -2.5,-1.2 -1.1,0 -1.9,0.4 -2.5,1.2 -0.6,0.9 -0.7,1.8 -0.7,4.5 v 34.3 c 0,2.7 0.1,3.6 0.7,4.5 0.5,0.8 1.4,1.2 2.5,1.2 1.1,0 1.9,-0.4 2.5,-1.2 0.6,-0.9 0.7,-1.8 0.7,-4.5 z M -91.1,364 c 6.1,0 10.5,1.9 13.2,5.2 2.7,3.4 3.6,8.2 3.6,15.6 v 28.4 c 0,7.4 -0.8,12.2 -3.6,15.6 -2.7,3.4 -7.1,5.2 -13.2,5.2 -6.1,0 -10.5,-1.9 -13.2,-5.2 -2.7,-3.4 -3.6,-8.2 -3.6,-15.6 v -28.4 c 0,-7.4 0.8,-12.2 3.6,-15.6 2.7,-3.3 7.1,-5.2 13.2,-5.2 m 130.9,1 v 11.6 h 8.5 v 56.8 h 13.5 v -56.8 h 8.5 V 365 Z m -52.7,16.3 c 0,-2.1 -0.1,-3 -0.6,-3.7 -0.5,-0.7 -1.2,-1 -2.2,-1 -1,0 -1.7,0.3 -2.2,1 -0.5,0.8 -0.6,1.6 -0.6,3.7 v 9.4 h 5.6 z m -2.8,-17.1 c 5.4,0 9.6,1.3 12.4,4 3,3 3.9,7.1 3.9,13 v 21.1 h -19 v 14.9 c 0,2.1 0.1,2.9 0.6,3.6 0.5,0.7 1.2,1 2.2,1 1,0 1.7,-0.3 2.2,-1 0.5,-0.8 0.6,-1.5 0.6,-3.6 v -7.9 H 0.6 v 9.8 c -0.2,4.9 -1.1,8.3 -3.9,11 -2.8,2.7 -6.7,4 -12.4,4 -5.7,0 -9.5,-1.3 -12.3,-4 -3,-3 -3.9,-7.1 -3.9,-13 v -35.8 c 0,-5.9 0.8,-10.1 3.9,-13 2.8,-2.9 6.8,-4.1 12.3,-4.1 m 42.5,29.5 -1.8,-1.1 c -5.3,-3.3 -6.2,-4.5 -6.2,-7.5 v -0.2 -3.4 -1.5 c 0,-2.2 0.9,-3.4 2.7,-3.4 1.1,0 1.9,0.5 2.2,1.2 0.4,0.8 0.5,1.4 0.5,7.4 v 2.5 h 13.6 v -3.3 c 0,-8.4 -0.4,-11.8 -4,-15.5 -2.8,-2.9 -6.9,-4.4 -12.3,-4.4 -10.4,0 -16.3,5.9 -16.3,15.5 v 0.7 4.3 1.3 c 0,9.1 3.4,11.9 11.7,17 l 1.8,1.1 c 5.3,3.3 6.1,4.5 6.1,7.5 v 0.4 4.6 1.6 c 0,2.4 -1.2,3.4 -2.7,3.4 -1.1,0 -1.9,-0.5 -2.2,-1.2 -0.4,-0.9 -0.4,-0.6 -0.4,-6.5 v -4.8 H 5.9 v 4.8 c 0,8.4 0.4,11.8 4,15.5 2.8,2.9 6.9,4.4 12.3,4.4 10.4,0 16.3,-5.9 16.3,-15.5 v -0.8 -5.4 -1.5 c 0,-9.3 -3.4,-12 -11.7,-17.2" id="path4" style="fill:rgb(200, 16, 46)"></path></g></svg>